<svg xmlns="http://www.w3.org/2000/svg" width="512" height="512" viewBox="0 0 512 512">
  <circle cx="256" cy="244.44" r="10" style="fill: #48a0ff"/>
  <path d="M354.75,243.65c4.06,29.52-40,55.29-98.75,55.29s-102.81-25.77-98.75-55.29C161,216.38,205.1,195.74,256,195.74S351,216.38,354.75,243.65Z" style="fill: none;stroke: #fff;stroke-miterlimit: 10;stroke-width: 2px;opacity: 0.300000011920929"/>
  <path d="M380.61,243.65c6.53,37.65-49,71.2-124.61,71.2s-131.14-33.55-124.61-71.2c5.91-34.08,61.48-59.42,124.61-59.42S374.7,209.57,380.61,243.65Z" style="fill: none;stroke: #fff;stroke-miterlimit: 10;stroke-width: 2px;opacity: 0.400000005960465"/>
  <path d="M407.82,243.65c9.81,46.41-57.63,88.66-151.82,88.66S94.37,290.06,104.18,243.65c8.68-41.09,76.27-71.11,151.82-71.11S399.14,202.56,407.82,243.65Z" style="fill: none;stroke: #fff;stroke-miterlimit: 10;stroke-width: 2px;opacity: 0.5"/>
  <path d="M327.78,243.65C329.9,264.87,297.81,283,256,283s-73.9-18.14-71.78-39.36c2-20,34.09-35.47,71.78-35.47S325.78,223.62,327.78,243.65Z" style="fill: none;stroke: #fff;stroke-miterlimit: 10;stroke-width: 2px;opacity: 0.200000002980232"/>
  <path d="M301.68,243.65c.85,13.36-19.59,24.56-45.68,24.56s-46.53-11.2-45.68-24.56c.82-12.87,21.26-23,45.68-23S300.86,230.78,301.68,243.65Z" style="fill: none;stroke: #fff;stroke-miterlimit: 10;stroke-width: 2px;opacity: 0.100000001490116"/>
  <path d="M435.66,243.65C449.56,299.22,370.05,351,256,351S62.44,299.22,76.34,243.65C88.37,195.53,168.19,161,256,161S423.63,195.53,435.66,243.65Z" style="fill: none;stroke: #fff;stroke-miterlimit: 10;stroke-width: 2px;opacity: 0.600000023841858"/>
  <circle cx="256" cy="268.21" r="6" style="fill: #fff;stroke: #db0000;stroke-miterlimit: 10;opacity: 0.100000001490116"/>
  <circle cx="256" cy="283.01" r="6" style="fill: #fff;stroke: #c00000;stroke-miterlimit: 10;opacity: 0.200000002980232"/>
  <circle cx="256" cy="299" r="6" style="fill: #fff;stroke: #810000;stroke-miterlimit: 10;opacity: 0.300000011920929"/>
  <circle cx="256" cy="314.99" r="6" style="fill: #fff;stroke: #400000;stroke-miterlimit: 10;opacity: 0.400000005960465"/>
  <circle cx="256" cy="332.31" r="6" style="fill: #fff;stroke: #1d0000;stroke-miterlimit: 10;opacity: 0.5"/>
  <circle cx="256" cy="351" r="6" style="fill: #fff;stroke: #140000;stroke-miterlimit: 10;opacity: 0.600000023841858"/>
</svg>
