<svg xmlns="http://www.w3.org/2000/svg" viewBox="0 0 512 512"><g id="a9958ebb-7746-4f63-90ca-2a328aa2a25e" data-name="ship"><path d="M360.83,338.68s-56.16,19.47-59.9,53.17c-2.33,20.92-.93,32.81-.28,36.73a1.56,1.56,0,0,1-1.22,1.78l-17.94,3.84a1.56,1.56,0,0,1-1.86-1.2,131.3,131.3,0,0,1-4.16-44.15" style="fill:none;stroke:#fff;stroke-miterlimit:10;stroke-width:2px"/><path d="M333.52,297.61V235.34s-4.14-3-10.13,0v44.15" style="fill:none;stroke:#fff;stroke-miterlimit:10;stroke-width:2px"/><path d="M281,180q.6,0,1.2,0A21.72,21.72,0,0,1,296,218.4" style="fill:none;stroke:#fff;stroke-miterlimit:10;stroke-width:2px"/><path d="M291.19,182.18l7.49-21.72s1.53-3.12,6.74-1.5,3.75,5.24,3.75,5.24l-3,10.49s4.49,2.24,3,9-5.25,18-5.25,18" style="fill:none;stroke:#fff;stroke-miterlimit:10;stroke-width:2px"/><path d="M211.8,425.23l-23-9.2a3.21,3.21,0,0,1-2-3.47,111.69,111.69,0,0,0,.3-29.7c-2-16.88-33.26-34.36-39.4-37.64a1,1,0,0,1-.27-1.45c55.19-64.6,103.5-220.58,108.19-236a.39.39,0,0,1,.74,0c4.69,15.41,53,171.39,108.19,236a1,1,0,0,1-.27,1.45c-6.14,3.28-37.37,20.76-39.4,37.64a111.69,111.69,0,0,0,.3,29.7,3.21,3.21,0,0,1-2,3.47l-23,9.2" style="fill:none;stroke:#fff;stroke-miterlimit:10;stroke-width:2px"/><path d="M151.17,338.68s56.16,19.47,59.9,53.17c2.33,20.92.93,32.81.28,36.73a1.56,1.56,0,0,0,1.22,1.78l17.94,3.84c.85.18,1.43.38,1.86-1.2a131.4,131.4,0,0,0,4.16-44.15" style="fill:none;stroke:#fff;stroke-miterlimit:10;stroke-width:2px"/><path d="M256,362.64c-8.85,0-22.78,5.08-23.2,24.54a.91.91,0,0,0,.91.92l9.5,0a.9.9,0,0,0,.9-.79c.36-2.86,2.28-12.48,11.89-12.48s11.53,9.62,11.89,12.48a.9.9,0,0,0,.9.79l9.5,0a.91.91,0,0,0,.91-.92C278.78,367.72,264.85,362.64,256,362.64Z" style="fill:none;stroke:#fff;stroke-miterlimit:10;stroke-width:2px"/><path d="M178.48,297.61V235.34s4.14-3,10.13,0v44.15" style="fill:none;stroke:#fff;stroke-miterlimit:10;stroke-width:2px"/><path d="M231,180q-.6,0-1.2,0A21.72,21.72,0,0,0,216,218.4" style="fill:none;stroke:#fff;stroke-miterlimit:10;stroke-width:2px"/><path d="M220.81,182.18l-7.49-21.72s-1.53-3.12-6.74-1.5-3.75,5.24-3.75,5.24l3,10.49s-4.49,2.24-3,9,5.25,18,5.25,18" style="fill:none;stroke:#fff;stroke-miterlimit:10;stroke-width:2px"/><path d="M229.67,352.59a41.07,41.07,0,0,0,52.66,0" style="fill:none;stroke:#fff;stroke-miterlimit:10;stroke-width:2px"/><path d="M255.63,181l-27.4,76.66a1.37,1.37,0,0,0,1,1.81l2.09.44a1.38,1.38,0,0,1,1,1.74l-2.33,8a1.39,1.39,0,0,1-1.65,1l-2.54-.63a1.38,1.38,0,0,0-1.65.93l-12.53,39.7a99,99,0,0,0,88.66,0L287.8,270.9a1.38,1.38,0,0,0-1.65-.93l-2.54.63a1.39,1.39,0,0,1-1.65-1l-2.33-8a1.38,1.38,0,0,1,1-1.74l2.09-.44a1.37,1.37,0,0,0,1-1.81L256.37,181A.39.39,0,0,0,255.63,181Z" style="fill:none;stroke:#fff;stroke-miterlimit:10;stroke-width:2px"/><path d="M256,355a138.2,138.2,0,0,1-62.25-15.09,4.7,4.7,0,0,1-2.17-5.93l6.14-15.17,57.91-158.25a.4.4,0,0,1,.74,0l57.91,158.25L320.42,334a4.7,4.7,0,0,1-2.17,5.93A138.2,138.2,0,0,1,256,355" style="fill:none;stroke:#fff;stroke-miterlimit:10;stroke-width:2px"/></g><g id="adaa0461-5f47-4794-af14-94f4054d279b" data-name="overlay_circles"><circle cx="199.91" cy="351.73" r="19.14" style="fill:#8fb2ff;fill-opacity:0.56;stroke:#fff;stroke-miterlimit:10;stroke-width:2px"/><circle cx="254.9" cy="329.51" r="19.14" style="fill:#3162ff;fill-opacity:0.56;stroke:#fff;stroke-miterlimit:10;stroke-width:2px"/><circle cx="256" cy="166.1" r="19.14" style="fill:#873ee5;fill-opacity:0.56;stroke:#fff;stroke-miterlimit:10;stroke-width:2px"/><circle cx="177.06" cy="415.1" r="19.14" style="fill:#fcf683;fill-opacity:0.56;stroke:#fff;stroke-miterlimit:10;stroke-width:2px"/><circle cx="279.2" cy="390.01" r="19.14" style="fill:#ffa515;fill-opacity:0.56;stroke:#fff;stroke-miterlimit:10;stroke-width:2px"/><circle cx="315.54" cy="434.24" r="19.14" style="fill:#8e1720;fill-opacity:0.56;stroke:#fff;stroke-miterlimit:10;stroke-width:2px"/><circle cx="317.33" cy="350.86" r="19.14" style="fill:#35a82c;fill-opacity:0.56;stroke:#fff;stroke-miterlimit:10;stroke-width:2px"/><circle cx="254.9" cy="277.23" r="19.14" style="fill:#d14622;fill-opacity:0.56;stroke:#fff;stroke-miterlimit:10;stroke-width:2px"/><circle cx="215.6" cy="192.84" r="20.93" style="fill:#ff5959;opacity:0.5"/><circle cx="296.4" cy="192.84" r="20.93" style="fill:#bc1d1d;opacity:0.5"/><circle cx="182.77" cy="275.5" r="20.93" style="fill:#961515;opacity:0.5"/><circle cx="326.3" cy="275.5" r="20.93" style="fill:#7a0c0c;opacity:0.5"/></g></svg>